<svg width="86" height="34" viewBox="0 0 86 34" fill="none" xmlns="http://www.w3.org/2000/svg">
<path d="M9.32812 28.4062C8.58854 28.4062 7.98438 28.1979 7.51562 27.7812C7.05729 27.3646 6.71875 26.7865 6.5 26.0469C6.29167 25.3177 6.1875 24.4792 6.1875 23.5312C6.1875 21.1354 6.98438 16.8542 8.57812 10.6875C9.16146 8.4375 9.60417 6.79688 9.90625 5.76562C10.1562 4.92188 10.8021 4.5 11.8438 4.5C12.6354 4.5 13.0312 4.77083 13.0312 5.3125C13.0312 5.44792 12.9427 5.85417 12.7656 6.53125C11.6823 10.875 10.9323 14.5417 10.5156 17.5312C11.276 17.2083 12.0104 16.7917 12.7188 16.2812C14.5833 14.9375 16.0729 13.2656 17.1875 11.2656C18.0312 9.74479 18.4531 8.32292 18.4531 7C18.4531 5.4375 17.8177 4.29167 16.5469 3.5625C15.7344 3.10417 14.6042 2.875 13.1562 2.875C11.7396 2.875 10.349 3.26042 8.98438 4.03125C7.61979 4.80208 6.43229 5.80208 5.42188 7.03125C4.42188 8.25 3.77083 9.38542 3.46875 10.4375C3.16667 11.4792 3.01562 12.3333 3.01562 13C3.01562 13.7188 3.125 14.4219 3.34375 15.1094C3.38542 15.2344 3.40625 15.3542 3.40625 15.4688C3.40625 15.6771 3.34375 15.8594 3.21875 16.0156C3.01042 16.2552 2.82292 16.3802 2.65625 16.3906C2.48958 16.3906 2.39583 16.3906 2.375 16.3906C2.09375 16.3906 1.85417 16.2396 1.65625 15.9375C0.833333 14.6771 0.421875 13.3021 0.421875 11.8125C0.421875 10.4062 0.729167 9.01042 1.34375 7.625C1.95833 6.23958 2.81771 4.97396 3.92188 3.82812C5.02604 2.67188 6.30729 1.74479 7.76562 1.04688C9.22396 0.348958 10.7708 0 12.4062 0C15.7188 0 18.224 0.953125 19.9219 2.85938C21.2031 4.26562 21.8438 6.02604 21.8438 8.14062C21.8438 9.16146 21.6771 10.1927 21.3438 11.2344C20.9062 12.6094 20.1927 13.9062 19.2031 15.125C18.224 16.3438 16.9792 17.3906 15.4688 18.2656C14.9479 18.5677 14.3958 18.8333 13.8125 19.0625C14.0833 19.6458 14.4635 20.2656 14.9531 20.9219C16.0365 22.401 17.5729 23.1406 19.5625 23.1406C21.1771 23.1406 22.5156 21.9844 23.5781 19.6719C23.974 18.7969 24.3854 17.7135 24.8125 16.4219C24.9583 15.974 25.2552 15.75 25.7031 15.75C25.974 15.75 26.2031 15.8385 26.3906 16.0156C26.5781 16.1927 26.6719 16.4271 26.6719 16.7188C26.6719 16.8542 26.6094 17.1198 26.4844 17.5156C26.1094 18.6615 25.7396 19.6875 25.375 20.5938C23.7396 24.5312 21.3594 26.5 18.2344 26.5C15.6615 26.5 13.6146 25.1354 12.0938 22.4062C11.5938 21.4896 11.1719 20.6615 10.8281 19.9219L10.2344 20.0156C10.1719 20.8385 10.1406 21.5885 10.1406 22.2656C10.1406 22.7031 10.151 23.125 10.1719 23.5312C10.2656 25.2708 10.6823 26.5417 11.4219 27.3438C10.8698 28.0521 10.1719 28.4062 9.32812 28.4062ZM28.4844 18.5156C28.849 18.5156 29.2031 18.4219 29.5469 18.2344C30.2656 17.8594 30.8333 17.2969 31.25 16.5469C31.6146 15.901 31.7969 15.3438 31.7969 14.875C31.7969 14.7292 31.776 14.5677 31.7344 14.3906C31.599 13.849 31.2396 13.5781 30.6562 13.5781C30.1458 13.5781 29.5833 13.9375 28.9688 14.6562C28.0833 15.6875 27.5156 16.8646 27.2656 18.1875C27.6823 18.4062 28.0885 18.5156 28.4844 18.5156ZM29.2812 26.5469C27.6458 26.5469 26.3438 26.026 25.375 24.9844C24.3542 23.8906 23.8438 22.4115 23.8438 20.5469C23.8438 18.4844 24.4583 16.5781 25.6875 14.8281C26.6667 13.4323 27.875 12.474 29.3125 11.9531C29.8438 11.7552 30.3958 11.6562 30.9688 11.6562C32.1667 11.6562 33.0729 12.1354 33.6875 13.0938C34.0312 13.6458 34.2031 14.224 34.2031 14.8281C34.2031 15.0365 34.1823 15.25 34.1406 15.4688C33.9948 16.3229 33.6979 17.0938 33.25 17.7812C32.5833 18.7917 31.8229 19.4896 30.9688 19.875C30.125 20.2604 29.3646 20.4531 28.6875 20.4531C28.2292 20.4531 27.7604 20.3906 27.2812 20.2656C27.7604 22.2135 28.9062 23.1875 30.7188 23.1875C32.9479 23.1875 34.6719 21.6771 35.8906 18.6562C36.1615 17.9896 36.4323 17.2448 36.7031 16.4219C36.849 15.974 37.1458 15.75 37.5938 15.75C37.8646 15.75 38.0938 15.8385 38.2812 16.0156C38.4688 16.1927 38.5625 16.4271 38.5625 16.7188C38.5625 16.9896 38.2917 17.8542 37.75 19.3125C35.9479 24.1354 33.125 26.5469 29.2812 26.5469ZM41.2188 26.8594C39.9688 26.8594 38.9479 26.5521 38.1562 25.9375C36.5729 24.7396 35.7812 22.9427 35.7812 20.5469C35.7812 19.526 35.9427 18.5208 36.2656 17.5312C36.5885 16.5312 37.0729 15.5833 37.7188 14.6875C38.3646 13.7917 39.1458 13.0625 40.0625 12.5C40.9792 11.9375 42 11.6562 43.125 11.6562C44.1146 11.6562 44.9427 12.0104 45.6094 12.7188C45.7969 12.9062 45.8906 13.1302 45.8906 13.3906C45.8906 13.6406 45.7969 13.8646 45.6094 14.0625C45.4219 14.25 45.1875 14.3438 44.9062 14.3438C44.6667 14.3438 44.4479 14.2552 44.25 14.0781C43.8333 13.6927 43.3906 13.5 42.9219 13.5C41.9219 13.5 41.0365 14.099 40.2656 15.2969C39.5052 16.4948 39.125 17.7917 39.125 19.1875C39.125 19.9062 39.25 20.5938 39.5 21.25C39.6562 21.6562 39.8646 22.0156 40.125 22.3281C40.7604 23.1094 41.6042 23.5 42.6562 23.5C44.8854 23.5 46.6146 21.8906 47.8438 18.6719C48.1042 17.9948 48.3698 17.2448 48.6406 16.4219C48.7865 15.974 49.0833 15.75 49.5312 15.75C49.8021 15.75 50.0312 15.8385 50.2188 16.0156C50.4062 16.1927 50.5 16.4271 50.5 16.7188C50.5 16.9896 50.2344 17.8542 49.7031 19.3125C47.8906 24.3438 45.0625 26.8594 41.2188 26.8594ZM51.9688 10.6875C51.5417 10.6875 51.224 10.5156 51.0156 10.1719C50.8385 9.86979 50.75 9.54167 50.75 9.1875C50.75 8.45833 50.9948 7.84375 51.4844 7.34375C51.8594 6.96875 52.2604 6.78125 52.6875 6.78125C53.1146 6.78125 53.4323 6.95312 53.6406 7.29688C53.8177 7.59896 53.9062 7.9375 53.9062 8.3125C53.9062 9.01042 53.6562 9.61458 53.1562 10.125C52.7917 10.5 52.3958 10.6875 51.9688 10.6875ZM51.5625 26.5C49.1042 26.5 47.875 24.9375 47.875 21.8125C47.875 19.6458 48.4688 16.625 49.6562 12.75C49.75 12.4479 49.9844 12.1927 50.3594 11.9844C50.7448 11.7656 51.151 11.6562 51.5781 11.6562C52.349 11.6667 52.7344 11.9375 52.7344 12.4688C52.7344 12.6146 52.625 13.0573 52.4062 13.7969C51.5833 16.6198 51.1719 18.8073 51.1719 20.3594C51.1719 22.2135 51.7812 23.1406 53 23.1406C54.1771 23.1406 55.5104 20.901 57 16.4219C57.1458 15.974 57.4427 15.75 57.8906 15.75C58.1615 15.75 58.3906 15.8385 58.5781 16.0156C58.7656 16.1927 58.8594 16.4271 58.8594 16.7188C58.8594 16.8542 58.7969 17.1198 58.6719 17.5156C58.0781 19.349 57.474 20.901 56.8594 22.1719C55.4531 25.0573 53.6875 26.5 51.5625 26.5ZM60.3125 22.25C60.6354 22.25 60.9531 22.1458 61.2656 21.9375C62.2135 21.3125 62.9844 20.2135 63.5781 18.6406C63.9219 17.6927 64.0938 16.8177 64.0938 16.0156C64.0938 15.2448 63.8906 14.8594 63.4844 14.8594C62.7552 14.8594 61.8542 16 60.7812 18.2812C60.2188 19.4583 59.7552 20.6875 59.3906 21.9688C59.7031 22.1562 60.0104 22.25 60.3125 22.25ZM57.5156 33.4375C56.776 33.4375 56.1771 33.224 55.7188 32.7969C55.25 32.3802 54.9115 31.8021 54.7031 31.0625C54.4844 30.3333 54.375 29.4948 54.375 28.5469C54.375 26.5677 54.974 23.4583 56.1719 19.2188C56.651 17.5208 57.0885 16.0208 57.4844 14.7188C57.7448 13.8854 57.9479 13.2135 58.0938 12.7031C58.3438 11.8594 58.9896 11.4375 60.0312 11.4375C60.8229 11.4375 61.2188 11.7083 61.2188 12.25C61.2188 12.4375 60.8646 13.6823 60.1562 15.9844C61.3021 13.9323 62.6042 12.9062 64.0625 12.9062C64.9167 12.9062 65.599 13.1875 66.1094 13.75C66.6198 14.3125 66.9531 14.9688 67.1094 15.7188C67.276 16.4583 67.3594 17.1562 67.3594 17.8125C67.3594 18.6979 67.1875 19.7031 66.8438 20.8281C66.5 21.9427 65.849 22.8802 64.8906 23.6406C67.2656 23.2448 69.0365 21.8229 70.2031 19.375C70.5781 18.5938 70.9635 17.6094 71.3594 16.4219C71.5052 15.974 71.8021 15.75 72.25 15.75C72.5208 15.75 72.75 15.8385 72.9375 16.0156C73.125 16.1927 73.2188 16.4271 73.2188 16.7188C73.2188 16.8542 73.1562 17.1198 73.0312 17.5156C72.2292 20.0052 71.1719 21.9219 69.8594 23.2656C68.3802 24.849 66.3125 25.6406 63.6562 25.6406C61.9167 25.6406 60.2604 25.2188 58.6875 24.375L58.4844 25.1094C58.3802 26.0365 58.3281 26.8646 58.3281 27.5938C58.3281 28.125 58.349 28.6354 58.3906 29.125C58.5052 30.5417 58.9115 31.6198 59.6094 32.3594C59.0573 33.0781 58.3594 33.4375 57.5156 33.4375ZM75.0469 18.5156C75.4115 18.5156 75.7656 18.4219 76.1094 18.2344C76.8281 17.8594 77.3958 17.2969 77.8125 16.5469C78.1771 15.901 78.3594 15.3438 78.3594 14.875C78.3594 14.7292 78.3385 14.5677 78.2969 14.3906C78.1615 13.849 77.8021 13.5781 77.2188 13.5781C76.7083 13.5781 76.1458 13.9375 75.5312 14.6562C74.6458 15.6875 74.0781 16.8646 73.8281 18.1875C74.2448 18.4062 74.651 18.5156 75.0469 18.5156ZM75.8438 26.5469C74.2083 26.5469 72.9062 26.026 71.9375 24.9844C70.9167 23.8906 70.4062 22.4115 70.4062 20.5469C70.4062 18.4844 71.0208 16.5781 72.25 14.8281C73.2292 13.4323 74.4375 12.474 75.875 11.9531C76.4062 11.7552 76.9583 11.6562 77.5312 11.6562C78.7292 11.6562 79.6354 12.1354 80.25 13.0938C80.5938 13.6458 80.7656 14.224 80.7656 14.8281C80.7656 15.0365 80.7448 15.25 80.7031 15.4688C80.5573 16.3229 80.2604 17.0938 79.8125 17.7812C79.1458 18.7917 78.3854 19.4896 77.5312 19.875C76.6875 20.2604 75.9271 20.4531 75.25 20.4531C74.7917 20.4531 74.3229 20.3906 73.8438 20.2656C74.3229 22.2135 75.4688 23.1875 77.2812 23.1875C79.5104 23.1875 81.2344 21.6771 82.4531 18.6562C82.724 17.9896 82.9948 17.2448 83.2656 16.4219C83.4115 15.974 83.7083 15.75 84.1562 15.75C84.4271 15.75 84.6562 15.8385 84.8438 16.0156C85.0312 16.1927 85.125 16.4271 85.125 16.7188C85.125 16.9896 84.8542 17.8542 84.3125 19.3125C82.5104 24.1354 79.6875 26.5469 75.8438 26.5469Z" fill="#010002"/>
</svg>
